<svg version="1.1" id="Camada_2" xmlns="http://www.w3.org/2000/svg" xmlns:xlink="http://www.w3.org/1999/xlink" x="0px" y="0px"
	 viewBox="0 0 560 288" style="enable-background:new 0 0 560 288;" xml:space="preserve">
<style type="text/css">
	.st0{fill:#BE3A31;}
	.st1{fill:#FFFFFF;}
	.st2{fill:none;stroke:#BE3A31;stroke-width:8;stroke-linecap:round;stroke-miterlimit:10;}
	.st3{fill:none;stroke:#ffffff;stroke-width:18;stroke-linecap:round;stroke-miterlimit:10;}
</style>
<g>
	<path class="st0" d="M62.4,271.3c-1.4-0.9-1.4-0.9-2.6-0.4c-2.3-0.4-3.4-1.1-5.8-1.4c-0.4-1-1.3-0.7-1.3-0.7
		c-5.1-1.7-7.9-5.5-10.9-10.5c-1.9-5.2-3-9.6-3.9-15.4c0.9-3.8,0.4-7.2,0.8-9.9c-0.3-0.9,0,0,0.9-0.3c-0.2-3.4,1.5-7.6,2.3-11.4
		c1-4.1,2.4-7.1,3.4-10.2c0.9-1.3,1.8-1.6,1.5-2.7c0.6-1.4,1-1.5,1.7-2.8c-0.8,2.4-1.5,6.4-2,6.6c0.7,2.1-0.6,1.6,0.1,3.7
		c-0.5,5-1.9,15.7-1.3,17.4l0.6,1.7c-0.3,2.6,0,2.5,0.5,4.7c1.1,5.6,2.7,13.5,6.1,16.9c2.9,4.8,9,6.3,15.2,5.5
		c2-0.7,3.8-1.7,4.8-2.1c1.9-0.7,3.7-1.5,4.5-2.2c0.3,0.1,3.9-2.8,4.4-3.3c1.6-1.4,3.7-2.5,5-3.9c2.1-1.7,6.8-6,9.6-10.5
		c2.1-3.5,3.2-6.4,4.4-9.2c1.7-7.6,6.6-15.3,3.5-23.9c0.9-0.3,0.2-2.4-0.2-3.4c-2.2-6.2-3.6-12-11.1-15.1c-2.2-0.2-4.9-1.9-7.1-1.9
		c-3.7,0-6.4-0.8-8-1.6l-6-1.4c-1,0.2-4.9-1-5.2-1.8c-2.3-0.5-4.4-1.2-7.6-3.9c-1.8-1.5-2.8-3.3-4.3-3.9l-1-2
		c-0.9-0.8-1.4-3.8-1.8-6.2c-0.7-5.6,0.2-7.9,1-11.9l0.4-1.7c0.6-2.6,2.3-5.1,3.7-8.2l1.4-1.5c0,0,0.5-0.8,0.8-1.6
		c1.4-1.9,3.7-5,6.9-8.5c0.4-1.3,1.4-1.7,3.2-2.9l1.7-1.2c1.5-1.7,3.2-3.7,4.2-4c1.5-1.3,3.8-1.4,5.9-2.1l-0.2-0.7
		c0.9-0.3,2.4,1.3,3.1-0.3c2.8,1.5,4.9,1.9,7.1,4.6c0.4,1.2,0.7,2.1,0.1,3.7c0,0,0.4,1,1.2,0.9c-0.9,0.5-1.1,2.5-0.5,1.2
		c0.4,1,0.4,4.4-0.4,8.1c-0.8,3.8-1.7,7.4-5.2,8.7c-2.7,1.4-4.6,1.3-5.9,1.2c2.8-3.2,3.3-4.3,4.1-6.2c1.4-2.8,2-3.8,3.2-6.6
		c0.6-1.4,0.5-6.2,0.1-7.4c-1.1-3.1-4.9-4.3-8-3.2c-2.7,1-6.9,3.6-7.6,5.3c0,0-1.1,0.4-1.5,1.7c-1.4,1.9-1.6,2.3-2.2,3.1
		c-0.8,0.3-1.3,3-2.3,3.4c-1.8,3.8-3.8,6.2-5,10.4c-0.1,1.4-1.5,2.9-1.7,7.4c-0.6,3.7-0.2,5.3,0.7,8.3c1.1,3.1,3.5,5.2,7.2,7
		c1.4,0.6,3.6,0.8,5.1,1.9c1.3,0.5,2.3,0.1,3.4,0.7c0.1,0.3,1.2,0,2.5,0.7l2.3,0.1c1.1-0.4,1.5,0.8,2.3,0.5c1.3,0.7,7.6,1,6,1.5
		c0.9-0.3,1.9-0.7,2.2,0.2c1.1-0.4,1.4,0.6,1.4,0.6c1.5,0.8,2.4,0.5,3.7,1c5.4,3.1,11.2,6.7,13.2,15.5c0.8,2.2,0.4,3.6,1.1,5.6
		c0.8,2.2,0.7,4.8,0.2,7.2l-0.5,1.5c0.4,1,0.7,1.9,0.3,3.4c0.4,1-0.5,2.5-0.9,3.8c-0.2-0.7-2.1,8.2-3.3,9.4l-1.1,2.7
		c-1.4,1.9-1.8,4.3-2.9,7.1c-1.1,0.4-2,0.7-1.6,1.8c-1.6,1.8-2.5,5.4-4.2,6.6l-0.9,0.5c-1.8,1.4-2.3,3.4-2.8,4.5
		c-2.5,2.3-4.1,4.2-5.7,6.1c0,0-0.7,0.2-0.5,0.8c-1.2,0.4-1.8,1.8-2.7,2.1c0.4,1-0.6,1.4-1.3,2.8c-1.9,0.7-2.3,2-4,4
		c-1.9,0.7-3.8,1.4-4.6,2.4C69.4,269.6,66.2,270,62.4,271.3z"/>
	<path class="st0" d="M135.1,223.5c-2.3-2.1-5-1.1-7.4-3.4c-2.5-1.8-4.1-4.7-5.4-8.2c-2.2-6-2.6-13.5-2.1-18.8l1-6
		c0.2-2.8,1.4-6.3,2.7-10.1c-0.4-1.2-1.6-2.7-1.4-5.9c0.3-2.1-0.2-4,1-6c0.8-3.6,0.9-5,4.8-7.6c0.9-1.7,10.3-3.7,16.7-1.9
		c0.6,1.3,3.1,3.6,3.7,4.7c1.4,2.6,0.9,5.9,1.7,7.2c0.6,1.2,1.1,2.7,1.1,5.9c0.6,1.2-0.3,3,0.4,4.4l1.1,2.5c0,0,0.1,3.1-0.9,5.2
		c5.7-2.3,14.5-14.8,16.4-20.1c-0.6,3.9-1.8,5.5-1.8,7.3c-0.9,3.8-4.1,6.3-3.5,7.9c-2.6,4.1-5.7,6.1-10.6,9.3
		c-0.7,1.8,0.4,4.5-0.8,5c0.5,4.3,1.1,8.2-0.4,11.9l0.4,1.8c-2.3,5.5-5,9.6-10,12.8L135.1,223.5z"/>
	<path class="st1" d="M144,208c2.1-5.4,2.4-12.6,3.4-17.6c-5.2,0.3-12.8-3.6-18.6-9.7c-0.6,5.5-1.4,9.9-1.5,13.6
		c0.5,9.9,1.2,22.2,10.2,25C139.5,217.2,142.4,211.7,144,208z"/>
	<path class="st1" d="M139.5,158.7c-3.3-0.2-5.4,1.5-6.1,3c-1.2,2.2-1.7,4.5-1.8,7.3c0.2,4.6,2.2,6.8,5.8,10.8
		c3.2,3.5,5.4,6.1,9.7,5.9C147.2,178,144.3,166.4,139.5,158.7z"/>
	<path class="st0" d="M200.5,200.9c-5.5-2.5-8.8-12.2-8.5-23.5c-1.5,4.8-1.9,7.5-2.7,11.1c0.5,1.4-0.6,0.8-1,3.9l-0.8,1.6
		c-0.8,2-3.6,3.1-3.9,6.1c-2.7,5.2-11.8,5.6-14.1,2.1c-4.7-10.2-2.8-16.9-3.5-24.9c1.1-4.9,0.5-9.2,1.2-15.2
		c0.7-5.3,0.8-9.6-1.2-13.8c-0.6-1.3-1.6-2-1.9-2.3c2.7-1.8,9.1-1.3,10,1.7c2.2,9.5,0.1,15.9,0.4,24.8c-0.8,2-1.7,4.5-0.8,7.1
		c-1,4.8-1.1,14.6,0.7,19.6c4.2-1.5,5.9-5.8,9.6-8.7c-0.4-4.5,3.3-5.9,5.3-12.6c0.8-7.3,0.9-9.7,2.1-14.4c0.3-3,0.1-5.9,0.4-7.7
		c0.7-3.2,0.4-6.4,0.4-9.7c0-2.5,0.2-3.8,0.1-4.9c0-1.7-0.1-2.5-0.3-3.2c1.3-0.5,7.2-0.6,8,0.8c0.6,1.2,0.9,3.4,0.9,4.7l-0.2,1.6
		l-0.5,5c-0.3,1.3-0.9,3.3-0.6,4.3c-0.7,2.2,0.3,4.8-0.4,6.4c-0.6,2.9-1.6,8.2-0.4,10.7c-1,1.5,1,2.8-0.3,3.2l0.9,2.6
		c0.2,3.6,0.1,6.2,1,9.8c0.9,4.6,3.1,12.9,8.3,13.8C206.2,202,204.1,201.6,200.5,200.9z"/>
	<path class="st0" d="M253.1,181c-2.7-0.4-4.2,0.1-6.2-2.1c-2.9-0.5-6.3-0.7-8.3-2.9c-1.5-2.2-2.5-4.5-3.4-6.8
		c-5.8-16.1,3-33.3,5.9-44.6c2.7-3.9,5.4-7.8,6-9.4c4.1-0.1,7,0.4,10.9,0.4c4.3,4.3,3.3,14.2,2.4,18.8l-0.1,1.8l-2.5,6
		c-1.2,2.6-3.1,4.8-4.9,7c-1.9,0.3-6.1-0.1-10.2-0.4c-0.4,0.9-0.6,3.9-0.1,5.3c-0.4,3.1,0,11.7,1.3,15.5c0.9,2.6,3.2,4.7,5.2,6.9
		c7.3-3.6,15.7-11.5,19.1-18.2l5-10l0.8-1.6c1.7-3.3,3.2-7.2,4.6-11.2c-0.1,3.9-2,9.5-4,14.5c-0.6,1.8-1.4,5.4-1.3,7.5
		c0.1,3.7-1.9,5.7-1.1,8.4c-2.2,2-1.7,3.2-3.8,5.1c-3,3.8-6.1,6.1-9,9.9C257.1,181.5,256,181.7,253.1,181z"/>
	<path class="st1" d="M252.8,135.9c0.7-1.8,1.9-2.3,1.5-3.5c-0.5-1.4,0,0,0.6-1.8c0.9-1.7,1.9-7.7-0.7-11.2
		c-1.2,0.4-1.6-0.8-2.9-0.3c-4,7.3-8,18.7-8.7,27.7C248.5,144.6,250.1,139.8,252.8,135.9z"/>
	<path class="st0" d="M311.4,160.9c-5.5-2.5-8.8-12.2-8.5-23.5c-1.5,4.8-1.9,7.5-2.7,11.1c0.5,1.4-0.6,0.8-1,3.9l-0.8,1.6
		c-0.8,2-3.6,3.1-3.9,6.1c-2.7,5.2-11.8,5.6-14.1,2.1c-4.7-10.2-2.8-16.9-3.5-24.9c1.1-4.9,0.5-9.2,1.2-15.2
		c0.7-5.3,0.8-9.6-1.2-13.8c-0.6-1.3-1.6-2-1.9-2.3c2.7-1.8,9.1-1.3,10,1.7c2.2,9.5,0.1,15.9,0.4,24.8c-0.8,2-1.7,4.5-0.8,7.1
		c-1,4.8-1.1,14.6,0.7,19.6c4.2-1.5,5.9-5.8,9.6-8.7c-0.4-4.5,3.3-5.9,5.3-12.6c0.8-7.3,0.9-9.7,2.1-14.4c0.3-3,0.1-5.9,0.4-7.7
		c0.7-3.2,0.4-6.4,0.4-9.7c0-2.5,0.2-3.8,0.1-4.9c0-1.7-0.1-2.5-0.3-3.2c1.3-0.5,7.2-0.6,8,0.8c0.6,1.2,0.9,3.4,0.9,4.7l-0.2,1.6
		l-0.5,5c-0.3,1.3-0.9,3.3-0.6,4.3c-0.7,2.2,0.3,4.8-0.4,6.4c-0.6,2.9-1.6,8.2-0.4,10.7c-1,1.5,1,2.8-0.3,3.2l0.9,2.6
		c0.2,3.6,0.1,6.2,1,9.8c0.9,4.6,3.1,12.9,8.3,13.8C317.1,162,315,161.6,311.4,160.9z"/>
	<path class="st2" d="M324,138c55-39,157.7-67.3,176-27c18.4,40.5-80,154-80,154"/>
	<path class="st2" d="M466.9,187.2c-29.3,34.6-65.7,101.3-38.2,73c41.4-42.7,61.1-38.7,77.1-32.7"/>
</g>
<path class="st3 --mask" d="M82,153c8.5-6.2,12.4-15.6,10-23c-0.3-0.8-2.3-6.7-8-9c-6.3-2.5-14.9,9.2-18,11c-13,7.4-19.2,21.7-13,37
	c4.3,10.6,11.8,12.1,19,15c19.9,7.9,30.8,0.3,37,8c7.8,9.7-2.5,30.2-6,37c-6.7,13.2-15.6,20.5-20,24c-9.4,7.5-18.7,14.9-27,12
	c-9-3.2-11.6-16.5-13-24c-1.4-7-4.3-22.6,4-33c11.4-14.3,39.2-8.3,53-3c17.7,6.8,29,19.1,31,17c2-2-10.2-12.3-11-29
	c-0.5-9.8,3-20,6-20c6.5-0.1,9.3,48.1,16,48c2.9,0,4.8-8.9,7-19c4-18.3,7.6-34.8-1-43c-3-2.9-8.3-5.5-13-4c-6.1,1.9-7.9,9.5-8,10
	c-2.3,10.3,6.9,24.1,18,25c12.4,0.9,20.3-14.7,22-18c7-13.8,5.2-29.9,4-30c-2.1-0.2-12.3,49.8-1,55c5,2.3,12.6-4.7,14-6
	c19.2-17.6,15.5-55.7,13-56c-2.9-0.3-17.6,46.9-1,61c7.3,6.2,19,4.8,26,2c18.2-7.2,23.5-31.2,30-61c1.1-4.8,5-22.9,2-24
	c-2.2-0.8-7,7.6-9,11c-9,15.6-17.5,30.3-11,43c4.7,9.2,17.1,16.9,26,14c14.1-4.6,16.5-34.9,18-54c0.9-10.8,0.7-22,1-22
	c0.6,0-3.4,54.6,7,57c5.9,1.4,15.7-14.1,20-28c5.8-18.8,1.8-36,2-36c0.5,0,7.3,59.2,10,59c1.3-0.1-1.3-13.9,7-23
	c6.2-6.8,15.3-7.6,19-8c37-4.2,54.4-31.8,99-34c12.4-0.6,48.2-2.4,60,17c11.8,19.4-6.4,49.8-28,86c-22.8,38.1-51.7,72.3-55,70
	c-4.7-3.3,47-81.7,45-83c-2.2-1.4-61,90.9-58,93c1.9,1.3,21.6-38.5,61-49c15.3-4.1,29.7-2.6,41,0"/>
</svg>
