<svg version="1.1" id="Camada_1" xmlns="http://www.w3.org/2000/svg" xmlns:xlink="http://www.w3.org/1999/xlink" x="0px" y="0px"
	 viewBox="0 0 750 80" style="enable-background:new 0 0 750 80;" xml:space="preserve">
<style type="text/css">
	.st0{fill:none;stroke:#1D1D1B;stroke-width:4;stroke-miterlimit:11.3386;}
	.st1{fill:none;stroke:#1D1D1B;stroke-width:4;stroke-linecap:round;stroke-miterlimit:11.3386;}
	.st2{fill:none;stroke:#1D1D1B;stroke-width:4;stroke-linecap:round;stroke-miterlimit:11.3386;stroke-dasharray:6,12;}
	.st3{stroke:#1D1D1B;stroke-width:4;stroke-linecap:round;stroke-miterlimit:11.3386;}
</style>
<g>
	<path id="path1098_00000008141439167623306480000015202092559362138498_" class="st0" d="M285.7,36.8"/>
	<path class="st1" d="M69.9,37.3"/>
	<path class="st1" d="M108.4,37.3"/>
	<path id="path859_00000094598411615424474520000006394283962368705167_" class="st1" d="M10.5,57.4l0-20C30,37.2,37.7,37.2,40,37.2
		"/>
	<path id="path859_00000088092796078849903860000003655410366681342595_" class="st1" d="M169.7,37.2c41.9-0.2,238.8-0.5,279.8-0.6"
		/>
	<path id="path859_00000141452275504506465840000007957618354438421932_" class="st1" d="M103.3,37.2c12,0,24.2-0.1,36.4-0.1"/>
	<path class="st1" d="M301.8,36.5"/>
	<path class="st2" d="M301.7,36.6"/>
	<path id="path859_00000100346881406141524490000009870709808253700235_" class="st1" d="M473.1,37c89,0,173.7,0,262.7,0
		c-17.7,6.1-35.5,12.2-53.2,18.3"/>

		<ellipse id="path861-1-2_00000007421418532650119860000005063604963986639024_" class="st3" cx="52.6" cy="37.3" rx="4.1" ry="4.2"/>
	<ellipse id="path861-3" class="st1" cx="89.1" cy="37.2" rx="14.2" ry="14.6"/>

		<ellipse id="path861-1-2_00000010284907429502589270000014244287197739627411_" class="st3" cx="153.7" cy="37.3" rx="4.1" ry="4.2"/>
	<ellipse id="path861-1-2" class="st3" cx="461.3" cy="37.3" rx="4.1" ry="4.2"/>
	<line class="st1" x1="473.1" y1="42.4" x2="473.1" y2="32.4"/>
	<line class="st1" x1="167.5" y1="42.3" x2="167.5" y2="32.3"/>
	<path class="st1" d="M167.5,37.3"/>
	<line class="st1" x1="65.3" y1="42.1" x2="65.3" y2="32.1"/>
	<line class="st1" x1="40" y1="42.5" x2="40" y2="32.5"/>
	<path class="st1" d="M65.3,37.1"/>
	<path class="st1" d="M36.4,37.2"/>
	<line class="st1" x1="75" y1="37.2" x2="65.3" y2="37.1"/>
	<line class="st1" x1="449.5" y1="41.5" x2="449.5" y2="31.6"/>
	<line class="st1" x1="139.7" y1="42.2" x2="139.7" y2="32.2"/>
</g>
</svg>
