<?xml version="1.0" encoding="utf-8"?>
<!-- Generator: Adobe Illustrator 27.8.0, SVG Export Plug-In . SVG Version: 6.00 Build 0)  -->
<svg version="1.1" id="Camada_1" xmlns="http://www.w3.org/2000/svg" xmlns:xlink="http://www.w3.org/1999/xlink" x="0px" y="0px"
	 viewBox="0 0 512 512" style="enable-background:new 0 0 512 512;" xml:space="preserve">
<style type="text/css">
	.st0{fill:#231F20;}
	.st1{fill:#FFFFFF;}
</style>
<g>
	<path class="st0" d="M512,406.83C512,464.93,464.92,512,406.84,512H105.17C47.09,512,0,464.93,0,406.83V105.16
		C0,47.08,47.09,0,105.17,0h301.67C464.92,0,512,47.08,512,105.16V406.83z"/>
	<path class="st1" d="M393.66,140.74h47.23V66.5h-58.65l0,0h-12.13c0,0-44.5-1.1-72.87,35.77c0,0-19.32,18.22-19.62,71.57h-0.01
		v55.68h-69.96v78.83h69.96V512h80.69V308.35h69.41l9.67-78.83H358.3v-55.68h-0.02C358.47,167.62,361.24,140.18,393.66,140.74z"/>
</g>
</svg>
