<?xml version="1.0" encoding="utf-8"?>
<!-- Generator: Adobe Illustrator 27.8.0, SVG Export Plug-In . SVG Version: 6.00 Build 0)  -->
<svg version="1.1" id="Camada_1" xmlns="http://www.w3.org/2000/svg" xmlns:xlink="http://www.w3.org/1999/xlink" x="0px" y="0px"
	 viewBox="0 0 512 512" style="enable-background:new 0 0 512 512;" xml:space="preserve">
<style type="text/css">
	.st0{fill-rule:evenodd;clip-rule:evenodd;fill:#020203;}
</style>
<path id="Mark" class="st0" d="M256.21,0C114.53,0,0,117.33,0,262.49C0,378.52,73.39,476.74,175.19,511.5
	c12.73,2.62,17.39-5.64,17.39-12.6c0-6.08-0.42-26.94-0.42-48.68c-71.27,15.65-86.11-31.28-86.11-31.28
	C94.6,388.53,77.62,380.7,77.62,380.7c-23.33-16.08,1.7-16.08,1.7-16.08c25.87,1.74,39.45,26.94,39.45,26.94
	c22.9,39.97,59.81,28.68,74.65,21.73c2.12-16.95,8.91-28.68,16.12-35.2C152.71,372,92.9,349.41,92.9,248.58
	c0-28.68,10.17-52.15,26.3-70.4c-2.54-6.51-11.45-33.46,2.55-69.53c0,0,21.63-6.95,70.41,26.94c20.88-5.75,42.42-8.67,64.05-8.69
	c21.63,0,43.68,3.05,64.05,8.69c48.78-33.9,70.41-26.94,70.41-26.94c14,36.07,5.09,63.02,2.54,69.53
	c16.55,18.25,26.31,41.71,26.31,70.4c0,100.83-59.81,122.98-117.07,129.5c9.34,8.26,17.39,23.89,17.39,48.68
	c0,35.2-0.42,63.45-0.42,72.14c0,6.95,4.66,15.21,17.39,12.61C438.61,476.74,512,378.53,512,262.5C512.41,117.33,397.46,0,256.21,0z
	"/>
</svg>
