<?xml version="1.0" encoding="utf-8"?>
<!-- Generator: Adobe Illustrator 27.8.0, SVG Export Plug-In . SVG Version: 6.00 Build 0)  -->
<svg version="1.1" id="Camada_1" xmlns="http://www.w3.org/2000/svg" xmlns:xlink="http://www.w3.org/1999/xlink" x="0px" y="0px"
	 viewBox="0 0 512 512" style="enable-background:new 0 0 512 512;" xml:space="preserve">
<style type="text/css">
	.st0{fill:#231F20;}
	.st1{fill:#FFFFFF;}
</style>
<g>
	<path class="st0" d="M512,406.84C512,464.9,464.9,512,406.84,512H105.16C47.08,512,0,464.9,0,406.84V105.19
		C0,47.11,47.08,0,105.16,0h301.67C464.9,0,512,47.11,512,105.19V406.84z"/>
	<g>
		<path class="st1" d="M330.1,62.94H181.9c-65.71,0-118.98,53.27-118.98,118.98V330.1c0,65.7,53.26,118.96,118.98,118.96h148.2
			c65.71,0,118.97-53.26,118.97-118.96V181.92C449.07,116.2,395.81,62.94,330.1,62.94z M412.01,315.88
			c0,53.11-43.05,96.13-96.13,96.13H196.12c-53.1,0-96.14-43.02-96.14-96.13V196.12c0-53.07,43.04-96.13,96.14-96.13h119.76
			c53.07,0,96.13,43.06,96.13,96.13V315.88z"/>
		<path class="st1" d="M261.18,154.97c-56.19,0-101.72,45.52-101.72,101.7c0,56.15,45.53,101.7,101.72,101.7
			c56.17,0,101.7-45.55,101.7-101.7C362.88,200.49,317.34,154.97,261.18,154.97z M261.18,317.86c-33.82,0-61.21-27.41-61.21-61.19
			c0-33.82,27.38-61.19,61.21-61.19c33.79,0,61.19,27.38,61.19,61.19C322.36,290.45,294.96,317.86,261.18,317.86z"/>
		<path class="st1" d="M381.71,153.38c0,14.28-11.6,25.86-25.87,25.86c-14.28,0-25.85-11.58-25.85-25.86
			c0-14.28,11.57-25.88,25.85-25.88C370.11,127.51,381.71,139.11,381.71,153.38z"/>
	</g>
</g>
</svg>
