<?xml version="1.0" encoding="utf-8"?>
<!-- Generator: Adobe Illustrator 27.8.0, SVG Export Plug-In . SVG Version: 6.00 Build 0)  -->
<svg version="1.1" id="Layer_1" xmlns="http://www.w3.org/2000/svg" xmlns:xlink="http://www.w3.org/1999/xlink" x="0px" y="0px"
	 viewBox="0 0 4000 4000" style="enable-background:new 0 0 4000 4000;" xml:space="preserve">
<style type="text/css">
	.st0{fill:#FFFFFF;}
	.st1{fill:#231F20;}
</style>
<rect class="st0" width="4000" height="4000"/>
<g>
	<path class="st1" d="M3917.3,3156.28c0,445.34-352.51,806.13-787.62,806.13H870.44c-435.04,0-787.74-360.8-787.74-806.13V843.85
		c0-445.18,352.7-806.26,787.74-806.26h2259.25c435.1,0,787.62,361.08,787.62,806.26V3156.28z"/>
	<g>
		<path class="st0" d="M657.32,1523.47h575.56v1895.07H657.32V1523.47z M945.18,581.45c183.9,0,333.42,153.14,333.42,341.76
			c0,188.48-149.52,341.23-333.42,341.23c-184.45,0-333.52-152.75-333.52-341.23C611.66,734.59,760.73,581.45,945.18,581.45"/>
		<path class="st0" d="M1593.77,1523.47h552.08v259.25h7.9c76.76-149.14,264.51-306.05,544.41-306.05
			c582.77,0,690.38,392.35,690.38,902.48v1039.39h-575.26v-921.56c0-219.75-3.7-502.59-299.15-502.59
			c-299.38,0-345.1,239.68-345.1,486.84v937.32h-575.26V1523.47z"/>
	</g>
</g>
</svg>
