<svg version="1.1" id="Camada_1" xmlns="http://www.w3.org/2000/svg" xmlns:xlink="http://www.w3.org/1999/xlink" x="0px" y="0px"
	 viewBox="0 0 512 768" style="enable-background:new 0 0 512 768;" xml:space="preserve">
<style type="text/css">
	.st0{fill:none;stroke:#1D1D1B;stroke-width:4;stroke-miterlimit:11.3386;}
	.st1{fill:none;stroke:#1D1D1B;stroke-width:4;stroke-linecap:round;stroke-miterlimit:11.3386;}
	.st2{fill:none;stroke:#1D1D1B;stroke-width:4;stroke-linecap:round;stroke-miterlimit:11.3386;stroke-dasharray:6,12;}
	.st3{stroke:#1D1D1B;stroke-width:4;stroke-linecap:round;stroke-miterlimit:11.3386;}
</style>
<path id="path1098_00000008141439167623306480000015202092559362138498_" class="st0" d="M251.2,293.8"/>
<path class="st1" d="M250.6,71.2"/>
<path class="st1" d="M250.6,110.9"/>
<path id="path859_00000094598411615424474520000006394283962368705167_" class="st1" d="M230.6,9.9h20c0.1,20.1,0.1,28.1,0.1,30.4"
	/>
<path class="st1" d="M147.6,194c18.7-23.3,43.3-36.4,53.4-41.3c2.9-1.4,24.5-9.5,50.1-9.5c67.5,0,104.5,48.7,111.7,59.1"/>
<path class="st2" d="M366.2,207.3c24.3,44.4,13.3,111-8.4,143c-44.8,62.2-127.2,72.9-186,33.7"/>
<path class="st1" d="M239.8,189.6l-0.1-31.9c-63,2.1-108.5,58.9-107.7,121.1c0.8,63,54.5,115.9,118.7,115.9
	c64.3,0,117.3-54,118.2-116.7c0.9-63.7-41.5-117.9-106.7-120.3l0.1,66.1"/>
<path id="path859_00000088092796078849903860000003655410366681342595_" class="st1" d="M250.8,174.1c0.2,43.2,0.5,94,0.6,136.3"/>
<path id="path859_00000141452275504506465840000007957618354438421932_" class="st1" d="M250.7,105.6c0,12.4,0.1,25,0.1,37.6"/>
<path class="st1" d="M262.2,536.1v-61.2c22.6,0.1,71.6-24.9,71.6-82.2c0-49-43.8-81.4-82.3-82.3"/>
<path class="st1" d="M239.8,596.6V474.9c-38.2-6.3-51.9-27.4-54.5-30.5c-26.9-31.7-12.3-75.8-11.4-78"/>
<path class="st2" d="M173.8,366.4c8-29.7,46-56.1,77.6-56.1"/>
<path id="path859_00000100346881406141524490000009870709808253700235_" class="st1" d="M251,487.1c0,91.8,0,179.2,0,271
	c-6.1-18.3-12.2-36.6-18.3-54.9"/>
<ellipse id="path861-1-2_00000007421418532650119860000005063604963986639024_" class="st3" cx="250.6" cy="53.3" rx="4.2" ry="4.2"/>
<ellipse id="path861-3" class="st1" cx="250.7" cy="91" rx="14.6" ry="14.6"/>
<ellipse id="path861-1" class="st3" cx="140.8" cy="204.5" rx="4.2" ry="4.2"/>
<ellipse id="path861-1-2_00000010284907429502589270000014244287197739627411_" class="st3" cx="250.7" cy="157.6" rx="4.2" ry="4.2"/>
<ellipse id="path861-1-2" class="st3" cx="250.7" cy="474.9" rx="4.2" ry="4.2"/>
<line class="st1" x1="245.6" y1="487.1" x2="255.6" y2="487.1"/>
<line class="st1" x1="245.7" y1="171.9" x2="255.6" y2="171.9"/>
<line class="st1" x1="142.2" y1="190.8" x2="151.7" y2="197.3"/>
<path class="st1" d="M250.7,171.9"/>
<line class="st1" x1="245.9" y1="66.3" x2="255.8" y2="66.3"/>
<line class="st1" x1="245.5" y1="40.3" x2="255.4" y2="40.3"/>
<path class="st1" d="M250.8,66.3"/>
<path class="st1" d="M250.7,36.5"/>
<line class="st1" x1="250.7" y1="76.4" x2="250.8" y2="66.3"/>
</svg>
