<?xml version="1.0" encoding="utf-8"?>
<!-- Generator: Adobe Illustrator 27.8.0, SVG Export Plug-In . SVG Version: 6.00 Build 0)  -->
<svg version="1.1" id="Camada_1" xmlns="http://www.w3.org/2000/svg" xmlns:xlink="http://www.w3.org/1999/xlink" x="0px" y="0px"
	 viewBox="0 0 512 512" style="enable-background:new 0 0 512 512;" xml:space="preserve">
<style type="text/css">
	.st0{fill:#020203;}
	.st1{fill:#FFFFFF;}
</style>
<ellipse class="st0" cx="256" cy="256" rx="256" ry="256"/>
<path class="st1" d="M399.36,167.09c-10.75,4.74-22.13,7.86-33.79,9.28c12.3-7.35,21.49-18.94,25.84-32.59
	c-11.54,6.86-24.17,11.69-37.35,14.28c-22.26-23.69-59.5-24.85-83.19-2.59c-11.82,11.11-18.54,26.6-18.55,42.83
	c0.01,4.52,0.51,9.02,1.51,13.43c-47.26-2.31-91.34-24.52-121.32-61.14c-15.51,26.79-7.61,61.02,18.07,78.31
	c-9.35-0.3-18.5-2.82-26.68-7.35v0.78c0.02,28,19.77,52.11,47.22,57.65c-8.67,2.33-17.74,2.68-26.56,1.02
	c7.68,23.97,29.77,40.39,54.93,40.84c-20.84,16.3-46.55,25.12-73.01,25.06c-4.69-0.01-9.38-0.29-14.04-0.84
	c26.93,17.35,58.31,26.54,90.35,26.44c108.42,0,167.4-89.63,167.4-167.34c0-2.59,0-5.12,0-7.65
	C381.66,189.18,391.53,178.88,399.36,167.09z"/>
</svg>
