<svg version="1.1" id="Camada_1" xmlns="http://www.w3.org/2000/svg" xmlns:xlink="http://www.w3.org/1999/xlink" x="0px" y="0px"
	 viewBox="0 0 512 512" style="enable-background:new 0 0 512 512;" xml:space="preserve">
<g>
	<path d="M258,133c-75.3,0-124.5,67.5-126,126c-0.9,35.9,16.2,63.3,25.3,75.8c-5.4,16.4-10.9,32.8-16.3,49.2c18-5.7,36-11.3,54-17
		c13,7.9,35.3,18.6,63,18c57.2-1.2,126-50.2,126-126C384,189.4,327.6,133,258,133z M331,323c-6,10-17.7,15.8-30,15
		c-37.7-9-61.8-26.6-74-37c-14.8-12.6-49.3-42.1-46-78c0.3-3.4,3.2-29.2,20-36c1.3-0.5,6.7-2.6,13-1c19.2,4.8,27.1,38,19,46
		c-2,1.9-4.2,1.7-7,5c-4,4.7-4.1,10.8-4,13c0.4,7.7,5.4,13.4,10,18c14.5,14.4,34.4,34.1,49,28c9-3.8,7.6-13.8,16-17
		c10.9-4.1,25.7,7.6,37,19C334.6,300.1,337.7,311.8,331,323z"/>
	<path d="M256,0C114.6,0,0,114.6,0,256s114.6,256,256,256s256-114.6,256-256S397.4,0,256,0z M258.4,411.6
		c-33.6,0.7-60.6-12.2-76.4-21.8c-21.8,6.9-43.7,13.7-65.5,20.6c6.6-19.9,13.2-39.8,19.8-59.7c-11-15.1-31.8-48.4-30.7-91.9
		c1.8-70.9,61.5-152.8,152.8-152.8c84.4,0,152.8,68.4,152.8,152.8C411.2,350.7,327.8,410.1,258.4,411.6z"/>
</g>
</svg>
